<svg width="60" height="60" viewBox="0 0 60 60" fill="none" xmlns="http://www.w3.org/2000/svg">
<path d="M34.6376 50.856C34.1914 50.858 33.7493 50.7709 33.3372 50.5999C32.9251 50.4288 32.5513 50.1773 32.2376 49.86L30.7196 48.342L29.2496 49.764C28.5951 50.4017 27.7154 50.7553 26.8016 50.748C25.8811 50.7533 24.9946 50.4004 24.3296 49.764C24.003 49.4548 23.7423 49.0828 23.5629 48.6705C23.3835 48.2581 23.2892 47.8137 23.2856 47.364C23.284 47.1627 23.3021 46.9618 23.3396 46.764L23.4236 46.266L22.9196 46.338C22.7608 46.3631 22.6004 46.3772 22.4396 46.38C21.5193 46.384 20.6333 46.0314 19.9676 45.396C19.6432 45.0851 19.3839 44.7128 19.2046 44.3008C19.0254 43.8888 18.9299 43.4453 18.9236 42.996C18.9257 42.7949 18.9438 42.5943 18.9776 42.396L19.0616 41.898L18.5636 41.97C18.0308 42.0558 17.4853 42.0159 16.9706 41.8533C16.456 41.6908 15.9865 41.4103 15.5996 41.034C15.2733 40.7242 15.0123 40.3523 14.832 39.9401C14.6517 39.528 14.5556 39.0839 14.5496 38.634C14.5514 38.4329 14.5695 38.2322 14.6036 38.034L14.6936 37.53L14.1896 37.602C14.0249 37.6299 13.8585 37.6459 13.6916 37.65C12.7711 37.6553 11.8846 37.3024 11.2196 36.666C10.893 36.3568 10.6323 35.9848 10.4529 35.5725C10.2735 35.1601 10.1792 34.7157 10.1756 34.266C10.1738 33.6881 10.3271 33.1204 10.6196 32.622L10.7576 32.382L10.5716 32.184C8.10955 29.5525 6.76086 26.0707 6.80783 22.4673C6.8548 18.8639 8.29379 15.4184 10.8236 12.852C13.4275 10.2543 16.9555 8.79542 20.6336 8.79542C24.3117 8.79542 27.8397 10.2543 30.4436 12.852C30.4436 12.852 30.4436 12.852 30.4436 12.9L30.7016 13.248L31.1036 12.852C32.3798 11.5194 33.909 10.4549 35.6018 9.72063C37.2945 8.98638 39.1167 8.59719 40.9617 8.57586C42.8067 8.55453 44.6374 8.90149 46.3466 9.59641C48.0559 10.2913 49.6093 11.3203 50.916 12.623C52.2227 13.9257 53.2564 15.4759 53.9565 17.1831C54.6567 18.8902 55.0092 20.7198 54.9936 22.5649C54.9779 24.4099 54.5943 26.2333 53.8652 27.9283C53.1361 29.6232 52.0762 31.1557 50.7476 32.436C50.7187 32.4606 50.6864 32.4809 50.6516 32.496L50.2856 32.688L50.5196 33.03C50.8948 33.5325 51.1219 34.1299 51.1752 34.7548C51.2284 35.3796 51.1058 36.0069 50.8211 36.5656C50.5364 37.1244 50.1011 37.5923 49.5643 37.9165C49.0275 38.2407 48.4106 38.4082 47.7836 38.4C47.5943 38.399 47.4056 38.3809 47.2196 38.346L46.7096 38.262L46.7876 38.772C46.87 39.2491 46.8472 39.7385 46.7208 40.2059C46.5944 40.6734 46.3673 41.1075 46.0556 41.478C45.7398 41.8518 45.3466 42.1527 44.9033 42.3598C44.4599 42.567 43.9769 42.6756 43.4876 42.678C43.3084 42.6752 43.1297 42.6571 42.9536 42.624L42.4436 42.546L42.5276 43.05C42.6155 43.5323 42.596 44.0281 42.4705 44.502C42.345 44.9759 42.1166 45.4164 41.8016 45.792C41.485 46.1649 41.0917 46.4651 40.6485 46.6722C40.2054 46.8793 39.7227 46.9884 39.2336 46.992C38.9626 46.9614 38.6965 46.8969 38.4416 46.8L37.9376 46.68L37.9856 47.196C38.066 47.9517 37.8792 48.7117 37.4576 49.344C37.1472 49.8076 36.7278 50.1879 36.2361 50.4515C35.7444 50.7152 35.1955 50.8541 34.6376 50.856Z" fill="white"/>
<path d="M34.6487 49.836C34.3151 49.8402 33.9839 49.7776 33.6748 49.6519C33.3657 49.5262 33.0848 49.3399 32.8487 49.104L31.3127 47.568L31.3787 47.424C31.5909 46.9692 31.7014 46.4738 31.7027 45.972C31.6993 45.4993 31.6008 45.0321 31.4132 44.5981C31.2256 44.1642 30.9527 43.7724 30.6107 43.446C29.9204 42.7888 29.0019 42.4252 28.0487 42.432C27.8761 42.4322 27.7037 42.4443 27.5327 42.468L27.2327 42.51L27.2808 42.204C27.319 42.0062 27.3391 41.8054 27.3407 41.604C27.3379 41.1311 27.2398 40.6637 27.0521 40.2297C26.8645 39.7957 26.5913 39.404 26.2487 39.078C25.5606 38.4211 24.644 38.0575 23.6928 38.064C23.5161 38.0638 23.3397 38.0759 23.1648 38.1L22.8647 38.142L22.9127 37.842C23.021 37.2762 22.9831 36.6921 22.8025 36.145C22.6219 35.598 22.3046 35.1061 21.8807 34.716C21.1927 34.0544 20.2732 33.6883 19.3188 33.696C19.1421 33.696 18.9657 33.7081 18.7907 33.732L18.4847 33.774L18.5387 33.474C18.6469 32.9063 18.6089 32.3205 18.4284 31.7716C18.2478 31.2227 17.9307 30.7286 17.5068 30.336C16.8139 29.6737 15.8912 29.3059 14.9327 29.31C13.9812 29.3051 13.0658 29.6735 12.3827 30.336L11.2367 31.44L11.0807 31.272C8.70017 28.7856 7.40481 25.4553 7.47963 22.0138C7.55446 18.5724 8.99335 15.3016 11.4797 12.921C13.9662 10.5404 17.2964 9.24504 20.7379 9.31987C24.1794 9.39469 27.4502 10.8336 29.8307 13.32L30.0407 13.476L29.9268 14.304L28.4567 15.774C28.4235 15.8123 28.3953 15.8546 28.3727 15.9L21.5027 22.758C20.8187 23.424 20.4467 23.712 20.4527 24.654C20.4549 25.1269 20.5527 25.5946 20.7404 26.0287C20.9281 26.4628 21.2017 26.8544 21.5447 27.18C22.2385 27.8401 23.1611 28.2057 24.1187 28.2C25.0703 28.2048 25.9857 27.8365 26.6687 27.174L30.7787 23.112L35.1348 23.274C35.9649 23.2709 36.7637 22.9561 37.3727 22.392L38.1587 21.678L49.4448 33C49.8797 33.4146 50.1602 33.9653 50.2398 34.561C50.3195 35.1566 50.1935 35.7616 49.8827 36.276C49.6776 36.5843 49.4066 36.8433 49.0893 37.0343C48.772 37.2252 48.4162 37.3433 48.0477 37.38C47.6791 37.4167 47.3071 37.3712 46.9583 37.2467C46.6095 37.1222 46.2927 36.9218 46.0308 36.66L39.2567 29.862C39.2092 29.813 39.1523 29.774 39.0894 29.7474C39.0266 29.7209 38.959 29.7072 38.8907 29.7072C38.8225 29.7072 38.7549 29.7209 38.692 29.7474C38.6292 29.774 38.5723 29.813 38.5247 29.862C38.4765 29.9099 38.4382 29.967 38.4121 30.0298C38.3859 30.0926 38.3725 30.16 38.3725 30.228C38.3725 30.296 38.3859 30.3634 38.4121 30.4262C38.4382 30.489 38.4765 30.546 38.5247 30.594L45.1247 37.194C45.6007 37.6428 45.8902 38.2543 45.9358 38.9069C45.9813 39.5595 45.7796 40.2053 45.3708 40.716C45.1415 40.9687 44.8641 41.173 44.5549 41.317C44.2456 41.4611 43.9107 41.5419 43.5698 41.5547C43.2289 41.5676 42.8888 41.5122 42.5696 41.3919C42.2503 41.2716 41.9584 41.0887 41.7107 40.854L34.6968 33.84C34.5997 33.7429 34.468 33.6884 34.3307 33.6884C34.1935 33.6884 34.0618 33.7429 33.9647 33.84C33.8677 33.9371 33.8131 34.0687 33.8131 34.206C33.8131 34.3433 33.8677 34.4749 33.9647 34.572L40.8947 41.508C41.3564 41.9589 41.6364 42.5635 41.6818 43.2072C41.7271 43.8509 41.5346 44.4888 41.1407 45C40.911 45.2528 40.6331 45.4573 40.3233 45.6014C40.0136 45.7455 39.6782 45.8264 39.3367 45.8392C38.9953 45.8521 38.6548 45.7967 38.3351 45.6763C38.0153 45.5559 37.7229 45.3729 37.4747 45.138L30.3767 38.064C30.3292 38.015 30.2723 37.976 30.2094 37.9495C30.1466 37.9229 30.079 37.9092 30.0107 37.9092C29.9425 37.9092 29.8749 37.9229 29.812 37.9495C29.7492 37.976 29.6923 38.015 29.6447 38.064C29.5487 38.1616 29.4949 38.2931 29.4949 38.43C29.4949 38.5669 29.5487 38.6984 29.6447 38.796L36.2927 45.444C36.7287 45.858 37.0098 46.4088 37.0895 47.0047C37.1692 47.6007 37.0426 48.2059 36.7307 48.72C36.5036 49.0642 36.1944 49.3465 35.8309 49.5413C35.4674 49.7361 35.0611 49.8374 34.6487 49.836Z" fill="#0079C8"/>
<path d="M11.0928 32.022C8.561 29.4902 7.13867 26.0564 7.13867 22.476C7.13867 18.8956 8.561 15.4618 11.0928 12.93C13.6245 10.3982 17.0583 8.97592 20.6388 8.97592C24.2192 8.97592 27.653 10.3982 30.1848 12.93" stroke="black" stroke-width="1.2" stroke-miterlimit="10" stroke-linecap="round"/>
<path d="M50.4888 32.022C53.0206 29.4902 54.4429 26.0564 54.4429 22.476C54.4429 18.8956 53.0206 15.4618 50.4888 12.93C47.9571 10.3982 44.5233 8.97592 40.9428 8.97592C37.3624 8.97592 33.9286 10.3982 31.3968 12.93L28.7988 15.516" stroke="black" stroke-width="1.2" stroke-miterlimit="10" stroke-linecap="round"/>
<path d="M34.3203 34.2L41.3523 41.22C41.9198 41.7846 42.6878 42.1017 43.4883 42.102C43.9222 42.1036 44.3512 42.0111 44.7459 41.8309C45.1406 41.6507 45.4914 41.387 45.7743 41.058C46.2663 40.4468 46.5114 39.6735 46.4614 38.8905C46.4114 38.1075 46.07 37.3717 45.5043 36.828L42.2583 33.6" stroke="black" stroke-width="1.2" stroke-miterlimit="10" stroke-linecap="round"/>
<path d="M41.25 41.112C41.8074 41.6542 42.1436 42.384 42.1935 43.16C42.2434 43.936 42.0034 44.7029 41.52 45.312C41.2504 45.629 40.9177 45.8864 40.5432 46.0679C40.1687 46.2494 39.7605 46.351 39.3447 46.3663C38.9288 46.3815 38.5143 46.31 38.1275 46.1564C37.7407 46.0028 37.3901 45.7704 37.098 45.474L30 38.4" stroke="black" stroke-width="1.2" stroke-miterlimit="10" stroke-linecap="round"/>
<path d="M36.5996 19.386L49.7996 32.586C50.3223 33.0849 50.6571 33.7487 50.7478 34.4655C50.8385 35.1824 50.6795 35.9086 50.2976 36.522C50.0518 36.8968 49.7252 37.2117 49.3418 37.4437C48.9583 37.6757 48.5277 37.8188 48.0817 37.8625C47.6357 37.9063 47.1855 37.8495 46.7643 37.6964C46.3431 37.5434 45.9615 37.2979 45.6476 36.978L38.8796 30.204" stroke="black" stroke-width="1.2" stroke-miterlimit="10" stroke-linecap="round"/>
<path d="M30.4744 38.886L36.6484 45.06C37.1715 45.5572 37.5073 46.2195 37.5991 46.9354C37.6909 47.6512 37.5331 48.3769 37.1524 48.99C36.9066 49.3648 36.58 49.6797 36.1966 49.9117C35.8131 50.1437 35.3825 50.2868 34.9365 50.3305C34.4905 50.3743 34.0403 50.3175 33.6191 50.1644C33.1979 50.0114 32.8163 49.7659 32.5024 49.446L22.3744 39.324L15.9004 32.85" stroke="black" stroke-width="1.2" stroke-miterlimit="10" stroke-linecap="round"/>
<path d="M30.2696 43.8C30.5602 44.0737 30.7924 44.4033 30.9521 44.7691C31.1119 45.1349 31.196 45.5292 31.1994 45.9283C31.2028 46.3275 31.1253 46.7232 30.9717 47.0916C30.8181 47.46 30.5915 47.7935 30.3056 48.072L28.9916 49.344C28.3995 49.9124 27.6104 50.2298 26.7896 50.2298C25.9688 50.2298 25.1798 49.9124 24.5876 49.344C24.301 49.0676 24.0722 48.7369 23.9147 48.3712C23.7571 48.0055 23.674 47.612 23.6701 47.2138C23.6662 46.8156 23.7416 46.4206 23.8919 46.0519C24.0422 45.6831 24.2644 45.348 24.5456 45.066L25.8656 43.8C26.4578 43.2317 27.2468 42.9143 28.0676 42.9143C28.8884 42.9143 29.6775 43.2317 30.2696 43.8Z" fill="white" stroke="black" stroke-width="1.2" stroke-miterlimit="10" stroke-linecap="round"/>
<path d="M25.9073 39.438C26.1939 39.7144 26.4227 40.0451 26.5802 40.4108C26.7378 40.7765 26.8209 41.17 26.8248 41.5682C26.8287 41.9664 26.7533 42.3614 26.603 42.7301C26.4527 43.0989 26.2304 43.434 25.9493 43.716L24.6293 45C24.0371 45.5683 23.2481 45.8857 22.4273 45.8857C21.6064 45.8857 20.8174 45.5683 20.2253 45C19.9345 44.7258 19.7022 44.3956 19.5424 44.0293C19.3825 43.6631 19.2984 43.2683 19.295 42.8686C19.2917 42.469 19.3691 42.0729 19.5228 41.7039C19.6765 41.335 19.9032 41.001 20.1893 40.722L21.5033 39.456C22.0931 38.8852 22.8808 38.5646 23.7016 38.5612C24.5224 38.5579 25.3128 38.872 25.9073 39.438Z" fill="white" stroke="black" stroke-width="1.2" stroke-miterlimit="10" stroke-linecap="round"/>
<path d="M21.5406 35.07C21.8329 35.3426 22.0671 35.6714 22.229 36.0368C22.3909 36.4022 22.4773 36.7966 22.4829 37.1962C22.4885 37.5958 22.4132 37.9924 22.2616 38.3622C22.11 38.732 21.8851 39.0673 21.6006 39.348L20.2806 40.614C19.6901 41.1833 18.9019 41.5015 18.0816 41.5015C17.2613 41.5015 16.4731 41.1833 15.8826 40.614C15.5915 40.3402 15.3587 40.0104 15.1984 39.6443C15.038 39.2783 14.9533 38.8836 14.9494 38.4839C14.9454 38.0843 15.0224 37.688 15.1755 37.3189C15.3287 36.9498 15.5549 36.6154 15.8406 36.336L17.1546 35.07C17.7459 34.5069 18.5311 34.1928 19.3476 34.1928C20.1641 34.1928 20.9493 34.5069 21.5406 35.07Z" fill="white" stroke="black" stroke-width="1.2" stroke-miterlimit="10" stroke-linecap="round"/>
<path d="M17.1661 30.696C17.4567 30.9697 17.6888 31.2993 17.8486 31.6651C18.0084 32.0309 18.0925 32.4252 18.0959 32.8243C18.0992 33.2234 18.0218 33.6191 17.8682 33.9875C17.7146 34.356 17.488 34.6895 17.2021 34.968L15.8881 36.24C15.2959 36.8084 14.5069 37.1257 13.6861 37.1257C12.8653 37.1257 12.0763 36.8084 11.4841 36.24C11.1975 35.9636 10.9687 35.6329 10.8111 35.2672C10.6536 34.9014 10.5705 34.508 10.5666 34.1098C10.5626 33.7116 10.638 33.3166 10.7884 32.9479C10.9387 32.5791 11.1609 32.244 11.4421 31.962L12.7621 30.696C13.3543 30.1276 14.1433 29.8102 14.9641 29.8102C15.7849 29.8102 16.5739 30.1276 17.1661 30.696Z" fill="white" stroke="black" stroke-width="1.2" stroke-miterlimit="10" stroke-linecap="round"/>
<path d="M25.8002 18.6L21.8582 22.506C21.5725 22.7854 21.3463 23.1198 21.1931 23.4889C21.0399 23.858 20.963 24.2543 20.9669 24.6539C20.9709 25.0536 21.0556 25.4483 21.2159 25.8143C21.3763 26.1804 21.6091 26.5102 21.9002 26.784C22.4924 27.3524 23.2814 27.6697 24.1022 27.6697C24.923 27.6697 25.712 27.3524 26.3042 26.784L27.6002 25.512L30.5462 22.566L34.9742 22.734C35.7192 22.765 36.4463 22.4997 36.9962 21.996L40.9922 18.348" fill="white"/>
<path d="M25.8002 18.6L21.8582 22.506C21.5725 22.7854 21.3463 23.1198 21.1931 23.4889C21.0399 23.858 20.963 24.2543 20.9669 24.6539C20.9709 25.0536 21.0556 25.4483 21.2159 25.8143C21.3763 26.1804 21.6091 26.5102 21.9002 26.784V26.784C22.4924 27.3524 23.2814 27.6697 24.1022 27.6697C24.923 27.6697 25.712 27.3524 26.3042 26.784L27.6002 25.512L30.5462 22.566L34.9742 22.734C35.7192 22.765 36.4463 22.4997 36.9962 21.996L40.9922 18.348" stroke="black" stroke-width="1.2" stroke-miterlimit="10" stroke-linecap="round"/>
</svg>
