<svg width="60" height="60" viewBox="0 0 60 60" fill="none" xmlns="http://www.w3.org/2000/svg">
<path d="M32.9999 41.304C42.7199 35.73 47.9999 29.01 48.1319 21.564C48.1678 20.37 47.9568 19.1815 47.5121 18.0729C47.0674 16.9643 46.3985 15.9594 45.5474 15.1213C44.6964 14.2832 43.6814 13.6298 42.5661 13.2022C41.4508 12.7745 40.2592 12.5818 39.0659 12.636C36.5159 12.75 34.4099 14.028 32.6459 15.546C32.5619 15.612 32.4179 15.744 32.2619 15.882C32.059 16.0613 31.7976 16.1602 31.5269 16.1602C31.2562 16.1602 30.9948 16.0613 30.7919 15.882L30.4259 15.558C28.6259 14.04 26.5439 12.75 23.9879 12.636C22.7946 12.5818 21.603 12.7745 20.4877 13.2022C19.3724 13.6298 18.3574 14.2832 17.5063 15.1213C16.6553 15.9594 15.9864 16.9643 15.5417 18.0729C15.097 19.1815 14.886 20.37 14.9219 21.564C15.0359 28.974 20.2739 35.664 29.9219 41.22L31.1219 41.886L31.5659 42.078C31.5659 42.078 32.6519 41.502 32.9999 41.304Z" fill="#0079C8"/>
<path d="M46.7333 28.626C47.8328 26.4441 48.4275 24.0428 48.4733 21.6C48.5051 20.094 48.152 18.6049 47.4475 17.2735C46.743 15.9422 45.7103 14.8127 44.4473 13.992" stroke="black" stroke-width="1.2" stroke-miterlimit="10" stroke-linecap="round"/>
<path d="M21.8574 9.44998C22.7153 9.30437 23.5863 9.25206 24.4554 9.29398L21.8574 9.44998Z" fill="#0079C8"/>
<path d="M21.8574 9.44998C22.7153 9.30437 23.5863 9.25206 24.4554 9.29398" stroke="black" stroke-width="1.2" stroke-miterlimit="10" stroke-linecap="round"/>
<path d="M10.0742 15.162C10.3335 14.4556 10.6652 13.778 11.0642 13.14C11.5274 12.3905 12.0816 11.7012 12.7142 11.088" stroke="black" stroke-width="1.2" stroke-miterlimit="10" stroke-linecap="round"/>
<path d="M11.8978 21.6C11.8753 20.0842 12.1316 18.5771 12.6538 17.154C13.2813 15.4339 14.2882 13.8774 15.5998 12.6C16.2687 11.9465 17.0141 11.3764 17.8198 10.902" stroke="black" stroke-width="1.2" stroke-miterlimit="10" stroke-linecap="round"/>
<path d="M41.8202 35.094C39.2907 37.4673 36.4821 39.5244 33.4562 41.22C33.2642 41.334 32.8562 41.55 32.4962 41.736C32.2935 41.8422 32.0681 41.8976 31.8392 41.8976C31.6104 41.8976 31.385 41.8422 31.1822 41.736C30.8762 41.574 30.5402 41.4 30.3782 41.304C20.6522 35.73 15.3782 29.01 15.2402 21.564" stroke="black" stroke-width="1.2" stroke-miterlimit="10" stroke-linecap="round"/>
<path d="M17.4004 15.558C18.2482 14.5761 19.3101 13.802 20.5043 13.2954C21.6986 12.7888 22.9932 12.5632 24.2884 12.636C26.8324 12.75 28.9384 14.028 30.7084 15.546L31.0864 15.882C31.2893 16.0612 31.5507 16.1602 31.8214 16.1602C32.0921 16.1602 32.3535 16.0612 32.5564 15.882L32.9224 15.558C34.7224 14.04 36.8044 12.75 39.3604 12.636C40.949 12.5538 42.5294 12.9131 43.9264 13.674" stroke="black" stroke-width="1.2" stroke-miterlimit="10" stroke-linecap="round"/>
<path d="M21.9956 51.528C21.9296 51.5277 21.8643 51.5143 21.8036 51.4885C21.7428 51.4628 21.6877 51.4252 21.6416 51.378L11.9996 41.736C11.952 41.6914 11.9141 41.6375 11.8883 41.5776C11.8625 41.5177 11.8493 41.4532 11.8496 41.388C11.8499 41.322 11.8633 41.2567 11.8891 41.1959C11.9148 41.1351 11.9524 41.0801 11.9996 41.034L15.8156 37.2C15.8625 37.1547 15.918 37.1191 15.9788 37.0954C16.0395 37.0717 16.1044 37.0604 16.1696 37.062C16.2339 37.0605 16.2978 37.0719 16.3576 37.0956C16.4174 37.1194 16.4718 37.1548 16.5176 37.2L17.8316 38.514L20.9996 35.4C21.8576 34.602 23.2976 33.66 24.5036 33.66H28.6676C29.3636 33.66 30.0776 34.206 30.7076 34.686C31.3376 35.166 31.5476 35.286 31.7456 35.328H36.1616C37.7516 35.328 38.5616 36.21 38.8196 37.044L38.9396 37.446L39.2396 37.146C40.3436 36.03 42.3296 34.026 43.7996 32.568C44.0023 32.3617 44.2442 32.1981 44.5111 32.0868C44.778 31.9755 45.0644 31.9188 45.3536 31.92C45.9158 31.919 46.457 32.1338 46.8656 32.52C47.0806 32.7185 47.2531 32.9586 47.3727 33.2257C47.4923 33.4928 47.5566 33.7814 47.5616 34.074C47.5713 34.3655 47.5232 34.656 47.4202 34.9288C47.3173 35.2017 47.1614 35.4515 46.9616 35.664L38.2496 44.664C38.0594 44.8571 37.8006 44.9671 37.5296 44.97C37.5296 44.97 26.2916 44.97 26.1896 44.97C25.7861 44.9656 25.3944 45.1061 25.0856 45.366L24.8696 45.54L26.1896 46.866C26.2372 46.9105 26.2751 46.9645 26.3009 47.0243C26.3267 47.0842 26.3399 47.1488 26.3396 47.214C26.3393 47.28 26.3259 47.3453 26.3002 47.406C26.2744 47.4668 26.2368 47.5218 26.1896 47.568L22.3796 51.378C22.33 51.4289 22.2701 51.4687 22.2039 51.4946C22.1376 51.5204 22.0666 51.5318 21.9956 51.528Z" fill="white"/>
<path d="M38.5802 38.064C38.5802 38.064 41.8142 34.782 43.9802 32.664C44.3397 32.3036 44.8259 32.0982 45.3349 32.0914C45.8438 32.0847 46.3353 32.2773 46.7042 32.628C47.0763 32.9902 47.2902 33.4849 47.2992 34.0041C47.3081 34.5233 47.1115 35.0251 46.7522 35.4L38.1482 44.304C38.044 44.4116 37.919 44.4969 37.7807 44.5547C37.6425 44.6124 37.494 44.6415 37.3442 44.64H26.1602C25.8392 44.6509 25.5242 44.7305 25.2365 44.8733C24.9488 45.0161 24.695 45.2189 24.4922 45.468" fill="white"/>
<path d="M38.5802 38.064C38.5802 38.064 41.8142 34.782 43.9802 32.664C44.3397 32.3036 44.8259 32.0982 45.3349 32.0914C45.8438 32.0847 46.3353 32.2773 46.7042 32.628V32.628C47.0763 32.9902 47.2902 33.4849 47.2992 34.0041C47.3081 34.5233 47.1115 35.0251 46.7522 35.4L38.1482 44.304C38.044 44.4116 37.919 44.4969 37.7807 44.5547C37.6425 44.6124 37.494 44.6415 37.3442 44.64H26.1602C25.8392 44.6509 25.5242 44.7305 25.2365 44.8733C24.9488 45.0161 24.695 45.2189 24.4922 45.468" stroke="black" stroke-width="1.2" stroke-miterlimit="10" stroke-linecap="round"/>
<path d="M17.832 38.814L21.162 35.484C21.972 34.734 23.37 33.816 24.492 33.816H28.656C29.76 33.816 31.056 35.484 31.752 35.484H36.15C39.48 35.484 39.48 39.648 36.15 39.648H29.49" fill="white"/>
<path d="M17.832 38.814L21.162 35.484C21.972 34.734 23.37 33.816 24.492 33.816H28.656C29.76 33.816 31.056 35.484 31.752 35.484H36.15C39.48 35.484 39.48 39.648 36.15 39.648H29.49" stroke="black" stroke-width="1.2" stroke-miterlimit="10" stroke-linecap="round"/>
<path d="M15.99 46.2L21.312 51.522C21.3356 51.5478 21.3643 51.5684 21.3963 51.5826C21.4284 51.5967 21.463 51.604 21.498 51.604C21.533 51.604 21.5676 51.5967 21.5996 51.5826C21.6316 51.5684 21.6604 51.5478 21.684 51.522L25.8 47.43C25.8495 47.3795 25.8772 47.3117 25.8772 47.241C25.8772 47.1703 25.8495 47.1025 25.8 47.052L15.414 36.678C15.3645 36.6289 15.2977 36.6013 15.228 36.6013C15.1583 36.6013 15.0914 36.6289 15.042 36.678L10.938 40.8C10.8889 40.8494 10.8613 40.9163 10.8613 40.986C10.8613 41.0557 10.8889 41.1225 10.938 41.172L12.462 42.696" fill="#F1EFEB"/>
<path d="M15.99 46.2L21.312 51.522C21.3356 51.5478 21.3643 51.5684 21.3963 51.5826C21.4284 51.5967 21.463 51.604 21.498 51.604C21.533 51.604 21.5676 51.5967 21.5996 51.5826C21.6316 51.5684 21.6604 51.5478 21.684 51.522L25.8 47.43C25.8495 47.3795 25.8772 47.3117 25.8772 47.241C25.8772 47.1703 25.8495 47.1025 25.8 47.052L15.414 36.678C15.3645 36.6289 15.2977 36.6013 15.228 36.6013C15.1583 36.6013 15.0914 36.6289 15.042 36.678L10.938 40.8C10.8889 40.8494 10.8613 40.9163 10.8613 40.986C10.8613 41.0557 10.8889 41.1225 10.938 41.172L12.462 42.696" stroke="black" stroke-width="1.2" stroke-miterlimit="10" stroke-linecap="round"/>
<path d="M16.1699 41.31L16.6619 41.808" stroke="black" stroke-width="1.2" stroke-miterlimit="10" stroke-linecap="round"/>
<path d="M46.74 27.12V28.152H46.14C45.8006 28.1295 45.4725 28.0206 45.1869 27.8358C44.9013 27.651 44.6676 27.3964 44.508 27.096L42.768 30.726C42.7126 30.8486 42.6176 30.949 42.4983 31.0112C42.379 31.0733 42.2423 31.0935 42.1101 31.0686C41.9779 31.0437 41.8579 30.9751 41.7694 30.8738C41.6808 30.7725 41.629 30.6443 41.622 30.51L40.536 18.144L38.202 28.344C38.1705 28.4728 38.0906 28.5846 37.9789 28.6561C37.8672 28.7276 37.7322 28.7534 37.602 28.728C37.5316 28.7115 37.4655 28.6799 37.4086 28.6354C37.3516 28.5908 37.305 28.5344 37.272 28.47L36.102 26.4C35.6931 26.9697 35.1517 27.4313 34.5244 27.7449C33.8972 28.0585 33.2031 28.2147 32.502 28.2H23.25L23.4 27.12H32.514C33.1466 27.1247 33.7684 26.9553 34.3112 26.6305C34.8541 26.3056 35.2972 25.8377 35.592 25.278C35.6566 25.1493 35.7513 25.0382 35.868 24.954C35.9267 24.913 35.9936 24.8854 36.0641 24.8729C36.1345 24.8605 36.2068 24.8636 36.276 24.882C36.3457 24.8981 36.4113 24.929 36.4682 24.9724C36.5251 25.0159 36.572 25.071 36.606 25.134L37.512 26.814L40.032 15.936C40.0664 15.7819 40.1549 15.6452 40.2814 15.5507C40.4079 15.4563 40.5642 15.4103 40.7217 15.4212C40.8792 15.4321 41.0276 15.4991 41.14 15.6101C41.2523 15.721 41.3212 15.8686 41.334 16.026L42.534 29.028L44.058 25.764C44.0945 25.693 44.1472 25.6316 44.2119 25.5847C44.2765 25.5378 44.3512 25.5067 44.43 25.494C44.5092 25.4799 44.5906 25.4845 44.6676 25.5074C44.7447 25.5303 44.8154 25.5709 44.874 25.626C44.9856 25.7499 45.0785 25.8894 45.15 26.04C45.342 26.412 45.69 27.102 46.164 27.102L46.74 27.12Z" fill="white"/>
<path d="M46.7333 28.626C47.8328 26.4441 48.4275 24.0428 48.4733 21.6C48.5051 20.094 48.152 18.6049 47.4475 17.2735C46.743 15.9422 45.7103 14.8127 44.4473 13.992" stroke="black" stroke-width="1.2" stroke-miterlimit="10" stroke-linecap="round"/>
</svg>
