<svg width="60" height="60" viewBox="0 0 60 60" fill="none" xmlns="http://www.w3.org/2000/svg">
<path d="M53.5139 48.282L42.2939 37.062C41.9551 36.6978 41.5464 36.4056 41.0922 36.2029C40.638 36.0001 40.1476 35.891 39.6502 35.882C39.1529 35.873 38.6589 35.9644 38.1976 36.1505C37.7364 36.3367 37.3174 36.614 36.9656 36.9657C36.6139 37.3174 36.3367 37.7364 36.1505 38.1977C35.9643 38.6589 35.873 39.153 35.882 39.6503C35.8909 40.1476 36.0001 40.6381 36.2028 41.0923C36.4055 41.5465 36.6977 41.9552 37.0619 42.294L48.2819 53.514C48.9839 54.1669 49.9117 54.5221 50.8702 54.5048C51.8288 54.4875 52.7432 54.099 53.4211 53.4211C54.0989 52.7432 54.4874 51.8288 54.5047 50.8703C54.5221 49.9118 54.1669 48.9839 53.5139 48.282Z" fill="white" stroke="#21272A" stroke-width="1.2" stroke-miterlimit="10" stroke-linecap="round"/>
<path d="M23.9939 42.588C34.2631 42.588 42.5879 34.2632 42.5879 23.994C42.5879 13.7248 34.2631 5.40002 23.9939 5.40002C13.7247 5.40002 5.3999 13.7248 5.3999 23.994C5.3999 34.2632 13.7247 42.588 23.9939 42.588Z" fill="white"/>
<path d="M40.2482 15C42.5128 19.0619 43.1785 23.8232 42.1148 28.3503C41.0511 32.8775 38.3347 36.8442 34.4982 39.4725C30.6617 42.1009 25.9818 43.2015 21.376 42.5585C16.7702 41.9154 12.5707 39.5752 9.60074 35.9966C6.63081 32.418 5.10469 27.8591 5.32158 23.2136C5.53847 18.5682 7.48273 14.1713 10.7732 10.885C14.0636 7.59869 18.4629 5.65994 23.1086 5.44887C27.7543 5.23779 32.3113 6.76962 35.8862 9.74403" stroke="#21272A" stroke-width="1.2" stroke-miterlimit="10" stroke-linecap="round"/>
<path d="M23.958 38.376C31.9209 38.376 38.376 31.9208 38.376 23.958C38.376 15.9951 31.9209 9.53998 23.958 9.53998C15.9952 9.53998 9.54004 15.9951 9.54004 23.958C9.54004 31.9208 15.9952 38.376 23.958 38.376Z" fill="#F1EFEB"/>
<path d="M9.55176 23.4C9.68886 19.9023 11.0953 16.5742 13.5082 14.0382C15.921 11.5022 19.175 9.9319 22.6616 9.62097C26.1482 9.31004 29.6287 10.2798 32.4522 12.3488C35.2757 14.4178 37.2489 17.4445 38.0028 20.8628C38.7567 24.2811 38.2396 27.857 36.5483 30.9217C34.857 33.9865 32.1072 36.3302 28.8132 37.5146C25.5193 38.6991 21.9067 38.6431 18.6509 37.3573C15.3952 36.0714 12.7194 33.6437 11.1238 30.528" stroke="#21272A" stroke-width="1.2" stroke-miterlimit="10"/>
<path d="M8.93994 26.964H19.1399C20.8979 26.964 22.1399 24.564 22.1399 24.564L24.5399 26.964L27.5399 14.364L29.9399 29.964L31.7399 25.164C31.7399 25.164 32.7719 27.564 34.7399 27.564" stroke="#0079C8" stroke-width="1.2" stroke-linecap="round" stroke-linejoin="round"/>
</svg>
