<svg width="24" height="24" viewBox="0 0 24 24" fill="none" xmlns="http://www.w3.org/2000/svg">
<path fill-rule="evenodd" clip-rule="evenodd" d="M16.9731 13.7799C17.025 13.8097 17.0713 13.8483 17.11 13.8939L23.7075 20.4914C23.9014 20.7053 24.0029 20.987 23.9901 21.2753C23.9773 21.5637 23.8511 21.8353 23.6391 22.0311L22.0254 23.6448C21.8303 23.8576 21.5592 23.9848 21.2708 23.9987C20.9825 24.0126 20.7003 23.9121 20.4858 23.7189L13.8882 17.11C13.8442 17.0697 13.8058 17.0237 13.7742 16.9731C11.8622 18.1059 9.60255 18.5019 7.41935 18.0867C5.23615 17.6716 3.27953 16.4739 1.91676 14.7185C0.553997 12.963 -0.121203 10.7705 0.0179019 8.55258C0.157007 6.33462 1.10085 4.24368 2.67227 2.67227C4.24369 1.10085 6.33462 0.157007 8.55258 0.0179019C10.7705 -0.121203 12.963 0.553997 14.7185 1.91676C16.4739 3.27952 17.6716 5.23614 18.0867 7.41934C18.5019 9.60254 18.1059 11.8622 16.9731 13.7742V13.7799ZM14.7093 14.8291L14.8234 14.715C16.3004 13.2078 17.1206 11.1771 17.1046 9.06688C17.0887 6.95665 16.2378 4.9386 14.7381 3.45395C13.2383 1.96931 11.2118 1.13886 9.10151 1.14419C6.99122 1.14952 4.96889 1.99019 3.47669 3.48239C1.98449 4.97459 1.14382 6.99692 1.13849 9.10721C1.13316 11.2175 1.9636 13.244 3.44825 14.7438C4.93289 16.2435 6.95095 17.0944 9.06118 17.1103C11.1714 17.1263 13.2021 16.3061 14.7093 14.8291ZM14.7093 16.3345L21.2156 22.8123L22.8066 21.2213L16.306 14.7207C16.0716 15.0199 15.8183 15.3037 15.5476 15.5704C15.2864 15.8424 15.0084 16.0976 14.715 16.3345H14.7093Z" fill="#0D1846"/>
</svg>
